<svg width="3588" height="587" viewBox="0 0 3588 587" fill="none" xmlns="http://www.w3.org/2000/svg">
<path d="M7.42779 46.6139C19.4613 20.0571 40.2748 6.63726 69.8683 6.35434C175.511 5.35469 280.201 4.04383 383.938 2.42175C427.14 1.74274 475.067 2.42175 521.126 1.60128C566.94 0.790244 616.697 0.441309 670.395 0.554477C700.724 0.611061 732.383 22.3959 738.522 52.8947C741.163 66.0977 741.493 79.5647 739.512 93.2957C739.362 94.3096 738.852 95.2348 738.077 95.9005C737.303 96.5661 736.315 96.9273 735.297 96.9171C681.259 96.6719 622.855 97.134 560.084 98.3034C488.647 99.6332 412.994 99.0673 354.231 99.9727C241.535 101.746 127.895 102.642 13.3125 102.66C10.2004 102.66 7.22031 102.217 4.37225 101.331C3.14626 100.953 2.48611 100.124 2.39181 98.841C1.17525 82.177 0.467949 61.9482 7.42779 46.6139Z" fill="#071E3C"/>
<path d="M654.153 225.25C605.604 180.124 522.906 174.267 479.422 231.049C479.027 231.558 478.519 231.966 477.939 232.242C477.359 232.517 476.723 232.651 476.083 232.634C444.754 231.54 413.331 231.153 381.814 231.474C310.688 232.181 239.845 232.323 167.502 233.369C113.04 234.162 59.0304 233.03 4.14383 234.388C3.77636 234.396 3.41111 234.328 3.06975 234.191C2.7284 234.053 2.41789 233.848 2.15665 233.586C1.89541 233.325 1.68877 233.013 1.54899 232.67C1.4092 232.327 1.33913 231.958 1.34292 231.587L2.38972 170.391C2.41202 168.868 3.0329 167.414 4.11818 166.345C5.20346 165.276 6.66596 164.676 8.18959 164.676C157.741 164.988 294.844 162.017 439.785 161.338C458.212 161.262 477.102 161.027 496.453 160.631C576.407 158.99 656.341 158.773 736.257 159.98C739.18 160.018 740.632 161.489 740.614 164.393L740.5 221.713C740.5 222.959 740.006 224.153 739.125 225.034C738.244 225.915 737.05 226.41 735.804 226.41L656.898 226.353C655.841 226.334 654.927 225.966 654.153 225.25Z" fill="#071E3C"/>
<path d="M565.939 247.318L565.373 236.539C565.334 235.857 565.436 235.174 565.675 234.534C565.914 233.894 566.283 233.31 566.759 232.821C567.235 232.331 567.808 231.946 568.442 231.69C569.075 231.434 569.755 231.312 570.437 231.333L577.001 231.531C581.452 231.663 583.801 233.945 584.046 238.378C584.216 241.509 583.98 244.658 583.339 247.827C583.282 248.099 583.283 248.379 583.34 248.651C583.397 248.923 583.51 249.181 583.672 249.409C583.833 249.636 584.04 249.829 584.28 249.976C584.519 250.122 584.786 250.219 585.064 250.26C587.554 250.619 592.571 252.637 600.116 256.315C604.605 258.503 605.765 261.841 603.596 266.33L601.842 269.923C599.842 274.073 596.674 275.365 592.335 273.799C584.272 270.885 571.711 265.029 563.902 270.546C562.959 271.206 562.601 272.092 562.827 273.205C564.468 281.099 578.218 283.418 584.81 285.965C599.465 291.623 610.838 305.232 604.133 321.613C600.38 330.798 593.552 335.014 583.65 334.259C580.255 333.995 579.67 335.155 581.896 337.739C586.168 342.775 584.329 349.707 577.935 351.319C572.22 352.791 563.704 350.244 564.213 342.973C564.402 340.182 565.024 337.494 566.08 334.91C566.172 334.683 566.21 334.439 566.193 334.194C566.176 333.95 566.104 333.712 565.982 333.498C565.86 333.284 565.691 333.099 565.488 332.956C565.285 332.814 565.052 332.718 564.807 332.675C556.056 331.241 548.37 328.044 541.749 323.084C540.583 322.214 539.682 321.039 539.146 319.689C537.788 316.275 537.836 313.314 539.288 310.805C542.494 305.279 546.776 304.26 552.132 307.75C559.121 312.276 576.888 318.359 583.904 311.767C584.492 311.216 584.922 310.518 585.147 309.744C585.373 308.971 585.387 308.151 585.187 307.37C584.988 306.59 584.582 305.877 584.013 305.307C583.444 304.736 582.732 304.329 581.952 304.128C576.52 302.714 571.211 301.082 566.024 299.234C547.549 292.698 537.421 276.544 549.388 257.842C552.632 252.75 557.527 249.949 564.072 249.44C565.392 249.345 566.014 248.638 565.939 247.318Z" fill="#01A1C0"/>
<path d="M678.061 249.157L736.512 248.364C737.31 248.357 738.079 248.665 738.651 249.221C739.224 249.777 739.553 250.537 739.568 251.335L740.417 290.52C740.424 290.927 740.35 291.331 740.197 291.709C740.045 292.086 739.818 292.429 739.53 292.717C739.243 293.005 738.9 293.232 738.522 293.384C738.144 293.537 737.74 293.611 737.333 293.603L687.793 292.698C687.136 292.682 686.501 292.453 685.986 292.045C685.47 291.636 685.102 291.071 684.936 290.435L675.175 252.948C675.059 252.504 675.046 252.039 675.136 251.589C675.226 251.139 675.418 250.715 675.696 250.35C675.974 249.985 676.331 249.688 676.741 249.481C677.151 249.274 677.602 249.163 678.061 249.157Z" fill="#0A375F"/>
<path d="M463.014 259.54C457.978 273.459 455.715 288.284 454.951 304.467C454.915 305.338 454.542 306.162 453.91 306.768C453.278 307.373 452.435 307.715 451.556 307.721C371.829 308.06 290.631 309.73 208.556 309.192C190.204 309.06 171.352 309.173 152 309.532C108.6 310.324 63.2951 310.654 16.0852 310.522C11.7659 310.522 8.14453 310.079 5.22102 309.192C4.63593 309.009 4.12242 308.647 3.75217 308.155C3.38191 307.663 3.17339 307.066 3.1557 306.448L2.16549 267.348C2.05232 263.048 4.14593 260.879 8.44632 260.841L461.713 257.672C461.936 257.672 462.157 257.726 462.355 257.829C462.553 257.933 462.724 258.083 462.851 258.266C462.979 258.449 463.061 258.661 463.089 258.883C463.118 259.105 463.092 259.33 463.014 259.54Z" fill="#071E3C"/>
<path d="M691.529 321.132L729.836 321.839C732.553 321.891 735.14 323.009 737.04 324.951C738.94 326.894 740.001 329.505 739.993 332.222L739.965 344.077C739.961 345.439 739.688 346.787 739.163 348.044C738.637 349.301 737.869 350.441 736.902 351.401C735.935 352.36 734.788 353.119 733.527 353.634C732.266 354.149 730.915 354.411 729.553 354.403L688.105 354.234C686.53 354.227 684.976 353.861 683.564 353.164C682.151 352.466 680.916 351.456 679.953 350.209C678.99 348.962 678.324 347.512 678.006 345.969C677.688 344.426 677.726 342.83 678.118 341.304L681.315 328.912C681.894 326.656 683.217 324.66 685.07 323.248C686.924 321.836 689.199 321.091 691.529 321.132Z" fill="#00CFCE"/>
<path d="M132.619 349.65C136.863 355.535 137.203 361.646 133.638 367.984C133.166 368.813 132.997 369.691 133.129 370.615C134.091 377.311 132.393 382.771 128.036 386.996L8.95504 386.883C6.89743 386.884 4.92015 386.084 3.44164 384.653C1.96313 383.222 1.09941 381.272 1.03327 379.216C0.712629 369.917 1.55196 360.863 3.55126 352.055C3.70407 351.385 4.08035 350.786 4.61935 350.355C5.15835 349.924 5.82862 349.686 6.52193 349.679L132.619 349.65Z" fill="url(#paint0_linear_13_15)"/>
<path d="M132.618 349.65C161.382 348.782 184.1 349.471 200.774 351.715C207.451 352.621 216.136 355.789 226.831 361.221C246.993 371.406 268.203 380.856 290.459 389.57C303.266 394.568 314.96 394.729 325.542 390.051C340.225 383.572 360.51 392.682 355.305 410.478C351.061 424.85 338.895 428.189 325.174 429.179C302.71 430.801 284.141 428.66 269.467 422.757C250.945 415.306 230.348 406.187 207.677 395.398C196.615 390.136 185.185 388.127 171.888 388.014C157.232 387.882 142.615 387.542 128.035 386.995C132.392 382.77 134.089 377.31 133.128 370.614C132.995 369.69 133.165 368.813 133.637 367.983C137.202 361.646 136.862 355.535 132.618 349.65Z" fill="url(#paint1_linear_13_15)"/>
<path d="M724.346 367.446C728.515 366.956 732.541 367.229 736.427 368.267C737.445 368.549 738.087 369.21 738.351 370.247C740.689 380.187 740.897 389.627 738.973 398.567C738.769 399.518 738.263 400.377 737.53 401.019C736.796 401.661 735.874 402.052 734.899 402.132C709.606 404.075 684.728 404.405 660.265 403.122C640.121 402.076 648.212 383.261 655.851 374.18C659.755 369.511 664.848 367.984 670.733 368.408C689.104 369.766 706.975 369.445 724.346 367.446Z" fill="#00CFCE"/>
<path d="M124.444 442.617C124.708 438.713 125.349 434.884 126.367 431.131C126.424 430.923 126.349 430.772 126.141 430.678C126.066 430.64 125.981 430.612 125.887 430.593C125.622 430.556 125.556 430.424 125.688 430.197C126.914 428.236 128.084 426.17 129.197 424.001C129.423 423.586 129.763 423.332 130.215 423.237C130.479 423.2 130.743 423.19 131.007 423.209C132.233 423.36 132.912 422.822 133.044 421.596C133.95 414.052 133.337 408.063 131.205 403.631C152.443 403.046 169.494 403.169 182.357 403.999C188.336 404.376 194.844 406.121 201.879 409.233C222.796 418.494 242.355 426.972 260.557 434.667C282.172 443.806 305.711 443.268 329.646 441.203C337.643 440.505 345.055 438.789 351.883 436.054C399.98 416.758 444.653 391.663 490.316 366.229C498.106 361.91 505.962 361.146 513.883 363.937C525.907 368.209 529.727 382.072 520.192 391.239C517.42 393.917 514.562 396.134 511.62 397.888C493.853 408.639 476.114 420.154 457.695 429.66C426.404 445.824 398.782 459.819 374.828 471.645C365.944 476.002 355.872 478.124 345.942 478.746C328.722 479.784 310.813 480.048 292.215 479.538C274.41 479.029 257.454 475.144 241.346 467.882C229.181 462.375 216.647 456.716 203.746 450.907C186.601 443.183 173.813 441.288 154.037 441.74C144.173 441.967 134.308 442.259 124.444 442.617Z" fill="url(#paint2_linear_13_15)"/>
<path d="M131.204 403.631C133.336 408.063 133.949 414.052 133.043 421.596C132.911 422.822 132.232 423.36 131.006 423.209C130.742 423.19 130.478 423.2 130.214 423.237C129.762 423.332 129.422 423.586 129.196 424.001C128.083 426.17 126.913 428.236 125.687 430.197C125.555 430.424 125.621 430.556 125.886 430.593C125.98 430.612 126.065 430.64 126.14 430.678C126.348 430.773 126.423 430.923 126.366 431.131C125.348 434.884 124.707 438.713 124.443 442.617C92.8404 444.258 63.3884 442.448 28.1931 443.268C21.2522 443.419 13.9151 442.938 6.18195 441.825C3.78656 441.467 2.58887 440.081 2.58887 437.666L2.73033 408.016C2.7378 406.813 3.221 405.662 4.07442 404.814C4.92784 403.966 6.08217 403.49 7.28535 403.49L131.204 403.631Z" fill="url(#paint3_linear_13_15)"/>
<path d="M306.954 531.568L311.736 529.135C312.584 528.72 313.065 528.032 313.179 527.07C313.292 526.259 312.98 525.74 312.245 525.514C311.528 525.269 311.311 524.797 311.594 524.099C312.782 521.006 314.376 518.658 316.376 517.054C317.205 516.394 317.62 515.536 317.62 514.48C317.639 511.726 318.837 510.274 321.213 510.123C321.359 510.114 321.497 510.067 321.612 509.986C321.728 509.906 321.815 509.796 321.864 509.67C321.996 509.406 322.043 509.123 322.006 508.821C321.949 508.124 321.572 507.718 320.874 507.605C320.384 507.529 319.903 507.558 319.431 507.69C318.526 507.954 318.054 507.614 318.016 506.671C317.847 501.748 319.62 498.297 323.335 496.316C324.09 495.92 324.09 495.524 323.335 495.128C323.109 495.015 322.864 494.921 322.6 494.845C320.751 494.279 320.798 494.044 322.741 494.138C325.495 494.27 328.032 493.921 330.352 493.091C351.005 494.204 369.357 492.139 385.408 486.895C403.345 481.039 424.819 470.514 443.152 460.81C470.426 446.324 496.501 433.583 521.38 422.587C532.753 417.551 544.928 415.345 557.905 415.967C615.771 418.721 672.383 419.107 727.741 417.127C734.682 416.882 738.577 419.909 739.426 426.209C740.407 433.602 740.303 441.279 739.115 449.238C738.945 450.389 738.285 451.03 737.134 451.162C719.461 452.992 701.769 453.859 684.059 453.765C643.573 453.567 603.059 454.557 562.884 453.765C546.446 453.426 532.668 459.791 518.607 467.119C478.602 487.998 442.718 505.983 410.956 521.072C390.472 530.804 365.83 530.719 342.857 531.314C330.899 531.634 318.931 531.719 306.954 531.568Z" fill="url(#paint4_linear_13_15)"/>
<path d="M330.353 493.091C328.033 493.921 325.496 494.27 322.742 494.138C320.799 494.043 320.752 494.279 322.601 494.845C322.865 494.92 323.11 495.015 323.336 495.128C324.091 495.524 324.091 495.92 323.336 496.316C319.62 498.297 317.848 501.748 318.017 506.671C318.055 507.614 318.527 507.954 319.432 507.69C319.903 507.558 320.384 507.529 320.875 507.605C321.573 507.718 321.95 508.123 322.006 508.821C322.044 509.123 321.997 509.406 321.865 509.67C321.816 509.796 321.728 509.906 321.613 509.986C321.498 510.066 321.359 510.114 321.214 510.123C318.838 510.274 317.64 511.726 317.621 514.48C317.621 515.536 317.206 516.394 316.376 517.054C314.377 518.657 312.783 521.006 311.595 524.099C311.312 524.797 311.529 525.268 312.246 525.514C312.981 525.74 313.292 526.259 313.179 527.07C313.066 528.032 312.585 528.72 311.736 529.135L306.955 531.568C281.945 533.35 254.926 532.049 231.896 521.581C217.09 514.847 202.68 508.397 188.666 502.229C180.575 498.646 171.399 496.873 161.138 496.91C128.885 497.023 96.6133 497.184 64.3227 497.391C66.6803 495.26 67.9346 492.629 68.0855 489.498C68.1232 488.668 68.5005 488.036 69.2172 487.602C71.2731 486.395 71.9898 484.311 71.3674 481.35C71.1992 480.515 71.2134 479.655 71.4088 478.83C71.6042 478.004 71.9762 477.232 72.4991 476.568L80.0813 466.949C80.666 466.213 80.6095 465.544 79.9116 464.94C78.4215 463.658 76.7429 462.95 74.8756 462.818C73.9137 462.743 73.0838 462.375 72.3859 461.715C71.6315 460.998 71.075 460.159 70.7167 459.197C102.988 458.612 135.251 458.141 167.504 457.782C172.049 457.745 178.387 458.754 186.516 460.81C192.269 462.281 198.059 464.327 203.887 466.949C217.864 473.249 231.595 478.935 245.08 484.009C261.433 490.12 274.929 493.119 293.035 493.317C305.446 493.468 317.885 493.393 330.353 493.091Z" fill="url(#paint5_linear_13_15)"/>
<path d="M70.7166 459.197C71.075 460.159 71.6314 460.998 72.3858 461.715C73.0837 462.375 73.9136 462.743 74.8755 462.818C76.7428 462.95 78.4215 463.657 79.9115 464.94C80.6094 465.543 80.666 466.213 80.0813 466.949L72.499 476.568C71.9761 477.232 71.6041 478.004 71.4087 478.829C71.2133 479.655 71.1992 480.515 71.3673 481.349C71.9898 484.311 71.273 486.395 69.2171 487.602C68.5004 488.036 68.1232 488.667 68.0855 489.497C67.9346 492.628 66.6803 495.26 64.3226 497.391L3.21183 495.75C3.02976 495.746 2.85021 495.707 2.68342 495.634C2.51663 495.561 2.36587 495.455 2.23976 495.324C2.11365 495.193 2.01465 495.038 1.94843 494.868C1.88221 494.698 1.85006 494.517 1.85381 494.335L2.05186 461.036C2.07072 459.715 2.74029 459.055 4.06059 459.055L70.7166 459.197Z" fill="url(#paint6_linear_13_15)"/>
<path d="M264.743 585.888C266.384 584.794 268.619 584.257 271.449 584.275C272.335 584.275 272.58 583.889 272.184 583.115C271.336 581.38 270.996 579.447 271.166 577.316C271.694 570.903 272.788 564.594 274.448 558.388C274.491 558.238 274.502 558.079 274.477 557.922C274.453 557.766 274.394 557.616 274.306 557.483C274.042 557.068 274.08 556.738 274.419 556.493C275.513 555.757 275.674 554.842 274.9 553.748C274.334 552.975 274.004 552.117 273.91 551.174C273.816 550.155 274.268 549.561 275.268 549.391C275.758 549.316 276.202 549.099 276.598 548.741C277.484 547.948 277.333 547.486 276.145 547.354L272.326 546.93C307.163 546.704 342.009 546.402 376.865 546.025C384.108 545.949 391.209 544.846 398.169 542.714C450.028 526.786 496.031 496.259 544.834 474.814C553.605 470.966 562.979 469.099 572.957 469.212C631.955 469.834 683.616 469.74 727.941 468.929C734.07 468.816 737.597 471.89 738.522 478.152C739.502 484.867 739.173 491.94 737.532 499.371C736.853 502.445 734.938 504.011 731.788 504.067C676.902 505.105 627.315 506.189 583.029 507.321C571.882 507.604 559.744 511.452 549.616 516.573C499.218 542.073 461.052 560.859 435.118 572.93C416.021 581.814 397.688 584.445 374.743 584.587C342.679 584.813 310.614 585.473 278.55 586.567C274.193 586.718 269.591 586.492 264.743 585.888Z" fill="url(#paint7_linear_13_15)"/>
<path d="M272.325 546.93L276.145 547.355C277.333 547.487 277.484 547.949 276.597 548.741C276.201 549.099 275.758 549.316 275.268 549.392C274.268 549.561 273.815 550.155 273.91 551.174C274.004 552.117 274.334 552.975 274.9 553.748C275.673 554.842 275.513 555.757 274.419 556.493C274.08 556.738 274.042 557.068 274.306 557.483C274.394 557.616 274.452 557.766 274.477 557.923C274.501 558.079 274.491 558.238 274.447 558.388C272.788 564.594 271.694 570.903 271.165 577.316C270.996 579.447 271.335 581.38 272.184 583.116C272.58 583.889 272.335 584.276 271.448 584.276C268.619 584.257 266.384 584.794 264.743 585.888C255.048 585.398 245.693 583.549 236.677 580.343C219.74 574.345 200.831 566.603 179.952 557.115C170.012 552.607 156.752 550.552 140.173 550.948C113.013 551.608 88.4272 551.9 66.416 551.825C44.5746 551.73 26.0999 543.884 10.992 528.286C7.69123 524.891 5.21096 520.996 3.55116 516.601C3.40113 516.201 3.34971 515.771 3.40126 515.346C3.4528 514.922 3.60579 514.517 3.84727 514.164C4.08875 513.812 4.41162 513.523 4.78853 513.321C5.16545 513.12 5.58531 513.013 6.01257 513.008C51.7513 512.744 96.8488 512.584 141.305 512.527C150.283 512.527 160.138 512.857 170.87 513.517C177.905 513.951 187.666 517.167 200.152 523.165C220.862 533.142 236.611 539.838 247.4 543.252C252.078 544.723 260.386 545.949 272.325 546.93Z" fill="url(#paint8_linear_13_15)"/>
<path d="M537.732 543.253C551.143 536.321 565.883 529.814 579.972 524.552C586.48 522.138 594.326 520.968 603.511 521.044C644.252 521.364 686.039 520.459 728.873 518.328C729.494 518.294 730.113 518.418 730.674 518.687C731.235 518.955 731.72 519.361 732.085 519.867C732.45 520.372 732.684 520.962 732.766 521.583C732.847 522.203 732.773 522.835 732.551 523.42C721.744 551.882 691.443 559.351 663.83 559.577C643.705 559.728 623.429 559.681 603.002 559.436C594.741 559.351 582.688 562.378 575.644 566.792C562.629 574.94 536.318 590.699 525.85 568.942C520.616 558.134 528.509 548.006 537.732 543.253Z" fill="url(#paint9_linear_13_15)"/>
<path d="M1088.97 112.076C1115.13 112.076 1138.77 115.518 1159.88 122.403C1181.45 128.829 1199.58 137.32 1214.27 147.876C1223.45 154.302 1230.56 161.416 1235.61 169.219C1241.12 177.022 1243.87 187.119 1243.87 199.512V440.477C1243.87 464.803 1239.28 485.686 1230.1 503.128C1220.93 521.028 1208.3 535.715 1192.24 547.19C1176.63 559.123 1158.04 567.844 1136.47 573.352C1115.36 578.859 1092.64 581.613 1068.31 581.613C1026.55 581.613 993.73 575.876 969.863 564.402C945.996 553.386 934.062 535.256 934.062 510.012C934.062 499.456 936.128 490.047 940.258 481.785C944.848 473.982 949.897 468.016 955.405 463.885C968.715 471.228 983.632 477.425 1000.16 482.473C1017.14 487.522 1034.58 490.047 1052.48 490.047C1077.26 490.047 1097 485.916 1111.69 477.654C1126.38 469.392 1133.72 456.082 1133.72 437.723V426.707C1114.9 434.969 1091.95 439.1 1064.87 439.1C1044.22 439.1 1024.48 436.116 1005.66 430.15C987.304 423.724 971.01 414.085 956.782 401.234C943.012 387.923 931.767 370.941 923.047 350.287C914.785 329.633 910.654 305.077 910.654 276.621C910.654 248.623 915.014 224.297 923.735 203.643C932.915 182.988 945.307 166.006 960.913 152.696C976.977 138.926 995.795 128.829 1017.37 122.403C1039.4 115.518 1063.27 112.076 1088.97 112.076ZM1131.65 211.904C1128.44 210.068 1123.62 208.232 1117.2 206.396C1111.23 204.561 1103.66 203.643 1094.48 203.643C1071.99 203.643 1055 210.068 1043.53 222.92C1032.51 235.312 1027.01 253.212 1027.01 276.621C1027.01 303.241 1032.51 322.519 1043.53 334.452C1055 345.927 1069.46 351.664 1086.9 351.664C1105.72 351.664 1120.64 347.304 1131.65 338.583V211.904ZM1646.89 456.312C1642.3 457.688 1634.96 459.065 1624.86 460.442C1615.22 461.819 1605.13 462.508 1594.57 462.508C1584.47 462.508 1575.29 461.819 1567.03 460.442C1559.23 459.065 1552.57 456.312 1547.07 452.181C1541.56 448.05 1537.2 442.542 1533.98 435.657C1531.23 428.314 1529.85 418.905 1529.85 407.43V254.589C1529.85 235.771 1525.03 222.69 1515.4 215.347C1506.22 207.544 1494.74 203.643 1480.97 203.643C1471.79 203.643 1463.07 204.79 1454.81 207.085C1446.55 209.38 1439.89 212.134 1434.84 215.347V456.312C1430.25 457.688 1422.91 459.065 1412.81 460.442C1403.17 461.819 1393.08 462.508 1382.52 462.508C1372.42 462.508 1363.24 461.819 1354.98 460.442C1347.18 459.065 1340.52 456.312 1335.02 452.181C1329.51 448.05 1325.15 442.542 1321.94 435.657C1319.18 428.314 1317.8 418.905 1317.8 407.43V8.11674C1322.85 7.19876 1330.2 6.05131 1339.84 4.67438C1349.93 2.83846 1360.03 1.92049 1370.13 1.92049C1380.23 1.92049 1389.18 2.60896 1396.98 3.98588C1405.24 5.36283 1412.12 8.11672 1417.63 12.2476C1423.14 16.3784 1427.27 22.1156 1430.03 29.4593C1433.24 36.3441 1434.84 45.5237 1434.84 56.9982V124.468C1440.81 122.173 1449.76 119.649 1461.69 116.895C1474.09 113.682 1487.63 112.076 1502.31 112.076C1547.75 112.076 1583.1 123.55 1608.34 146.499C1634.04 168.99 1646.89 202.725 1646.89 247.705V456.312ZM2065.46 289.701C2065.46 318.158 2061.1 343.632 2052.38 366.122C2043.66 388.153 2031.26 406.742 2015.2 421.888C1999.59 437.034 1980.78 448.509 1958.74 456.312C1936.71 464.114 1912.16 468.016 1885.08 468.016C1858 468.016 1833.44 463.885 1811.41 455.623C1789.38 447.361 1770.33 435.657 1754.27 420.511C1738.66 404.906 1726.5 386.087 1717.78 364.056C1709.06 342.025 1704.7 317.24 1704.7 289.701C1704.7 262.622 1709.06 238.066 1717.78 216.035C1726.5 194.004 1738.66 175.415 1754.27 160.269C1770.33 144.664 1789.38 132.73 1811.41 124.468C1833.44 116.207 1858 112.076 1885.08 112.076C1912.16 112.076 1936.71 116.436 1958.74 125.157C1980.78 133.418 1999.59 145.352 2015.2 160.957C2031.26 176.104 2043.66 194.692 2052.38 216.724C2061.1 238.755 2065.46 263.081 2065.46 289.701ZM1824.49 289.701C1824.49 317.699 1829.77 339.271 1840.33 354.418C1851.34 369.105 1866.49 376.449 1885.77 376.449C1905.04 376.449 1919.73 368.876 1929.83 353.729C1940.38 338.583 1945.66 317.24 1945.66 289.701C1945.66 262.163 1940.38 241.05 1929.83 226.362C1919.27 211.216 1904.35 203.643 1885.08 203.643C1865.8 203.643 1850.88 211.216 1840.33 226.362C1829.77 241.05 1824.49 262.163 1824.49 289.701ZM2276.09 112.076C2303.63 112.076 2329.1 115.748 2352.51 123.091C2376.37 129.976 2396.8 140.762 2413.78 155.45C2430.76 170.137 2444.07 188.726 2453.71 211.216C2463.35 233.247 2468.17 259.638 2468.17 290.39C2468.17 319.765 2464.04 345.468 2455.78 367.499C2447.52 389.53 2435.81 408.119 2420.67 423.265C2405.52 437.952 2387.16 448.968 2365.59 456.312C2344.47 463.655 2320.84 467.327 2294.68 467.327C2274.94 467.327 2256.58 464.344 2239.6 458.377V572.663C2235.01 574.04 2227.66 575.417 2217.57 576.794C2207.47 578.63 2197.14 579.548 2186.59 579.548C2176.49 579.548 2167.31 578.859 2159.05 577.482C2151.24 576.106 2144.59 573.352 2139.08 569.221C2133.57 565.09 2129.44 559.353 2126.69 552.009C2123.93 545.124 2122.56 535.945 2122.56 524.47V194.004C2122.56 181.611 2125.08 171.514 2130.13 163.711C2135.64 155.909 2142.98 148.794 2152.16 142.369C2166.39 133.189 2184.06 125.845 2205.17 120.338C2226.29 114.83 2249.92 112.076 2276.09 112.076ZM2277.46 375.072C2324.74 375.072 2348.38 346.845 2348.38 290.39C2348.38 261.015 2342.41 239.214 2330.48 224.985C2319 210.757 2302.25 203.643 2280.22 203.643C2271.5 203.643 2263.69 204.79 2256.81 207.085C2249.92 208.921 2243.96 211.216 2238.91 213.97V365.433C2244.42 368.187 2250.38 370.482 2256.81 372.318C2263.23 374.154 2270.12 375.072 2277.46 375.072ZM2669.83 382.645C2677.64 382.645 2686.13 381.957 2695.31 380.58C2704.94 378.744 2712.06 376.449 2716.65 373.695V318.617L2667.08 322.748C2654.23 323.666 2643.67 326.42 2635.41 331.01C2627.15 335.6 2623.02 342.484 2623.02 351.664C2623.02 360.844 2626.46 368.417 2633.34 374.383C2640.69 379.891 2652.85 382.645 2669.83 382.645ZM2664.32 112.076C2689.11 112.076 2711.6 114.6 2731.8 119.649C2752.45 124.698 2769.89 132.501 2784.12 143.057C2798.81 153.155 2810.05 166.236 2817.85 182.3C2825.66 197.905 2829.56 216.494 2829.56 238.066V392.284C2829.56 404.217 2826.12 414.085 2819.23 421.888C2812.81 429.232 2805 435.657 2795.82 441.165C2765.99 459.065 2723.99 468.016 2669.83 468.016C2645.51 468.016 2623.48 465.721 2603.74 461.131C2584.46 456.541 2567.71 449.656 2553.48 440.477C2539.71 431.297 2528.93 419.593 2521.12 405.365C2513.78 391.136 2510.11 374.613 2510.11 355.795C2510.11 324.125 2519.52 299.799 2538.33 282.817C2557.15 265.834 2586.3 255.278 2625.77 251.147L2715.96 241.508V236.689C2715.96 223.379 2709.99 213.97 2698.06 208.462C2686.59 202.495 2669.83 199.512 2647.8 199.512C2630.36 199.512 2613.38 201.348 2596.85 205.02C2580.33 208.691 2565.41 213.281 2552.1 218.789C2546.14 214.658 2541.09 208.462 2536.96 200.2C2532.83 191.48 2530.76 182.529 2530.76 173.35C2530.76 161.416 2533.52 152.007 2539.02 145.123C2544.99 137.779 2553.94 131.583 2565.87 126.534C2579.18 121.485 2594.79 117.813 2612.69 115.518C2631.05 113.223 2648.26 112.076 2664.32 112.076ZM2945.38 371.63C2940.33 360.155 2934.82 347.304 2928.85 333.075C2923.35 318.847 2917.38 302.553 2910.95 284.194C2904.99 265.834 2898.56 244.951 2891.68 221.543C2885.25 197.676 2878.37 170.366 2871.02 139.615C2877.45 133.189 2885.94 127.681 2896.5 123.091C2907.51 118.043 2919.44 115.518 2932.3 115.518C2948.36 115.518 2961.67 118.961 2972.23 125.845C2982.78 132.271 2990.59 144.664 2995.64 163.023L3050.02 352.352H3052.78C3058.29 336.747 3063.56 319.765 3068.61 301.405C3074.12 283.046 3079.4 264.228 3084.45 244.951C3089.5 225.215 3094.09 205.708 3098.22 186.431C3102.81 166.695 3106.71 147.417 3109.92 128.599C3126.45 119.879 3144.57 115.518 3164.31 115.518C3180.38 115.518 3193.69 118.961 3204.24 125.845C3214.8 132.73 3220.08 144.664 3220.08 161.646C3220.08 174.038 3218.47 188.496 3215.26 205.02C3212.05 221.084 3207.68 238.296 3202.18 256.655C3197.13 275.014 3190.93 294.062 3183.59 313.798C3176.7 333.075 3169.36 352.123 3161.56 370.941C3153.75 389.759 3145.72 407.66 3137.46 424.642C3129.2 441.165 3121.17 456.082 3113.36 469.392C3100.51 491.883 3088.58 510.242 3077.56 524.47C3066.55 538.699 3055.99 549.714 3045.89 557.517C3035.8 565.778 3025.7 571.286 3015.6 574.04C3005.5 577.253 2994.95 578.859 2983.93 578.859C2964.65 578.859 2949.05 573.122 2937.12 561.648C2925.18 550.173 2918.07 535.256 2915.77 516.897C2930.46 505.422 2945.15 492.571 2959.84 478.343C2974.52 464.573 2987.83 450.345 2999.77 435.657C2991.96 433.362 2983.47 428.084 2974.29 419.823C2965.57 411.102 2955.93 395.038 2945.38 371.63Z" fill="#071E3C"/>
<defs>
<linearGradient id="paint0_linear_13_15" x1="-37.9775" y1="349.252" x2="380.118" y2="389.446" gradientUnits="userSpaceOnUse">
<stop stop-color="#0243FD"/>
<stop offset="1" stop-color="#02CBC3"/>
</linearGradient>
<linearGradient id="paint1_linear_13_15" x1="-37.9775" y1="349.252" x2="380.118" y2="389.446" gradientUnits="userSpaceOnUse">
<stop stop-color="#0243FD"/>
<stop offset="1" stop-color="#02CBC3"/>
</linearGradient>
<linearGradient id="paint2_linear_13_15" x1="-54.7544" y1="362.242" x2="560.781" y2="421.877" gradientUnits="userSpaceOnUse">
<stop stop-color="#0243FD"/>
<stop offset="1" stop-color="#02CBC3"/>
</linearGradient>
<linearGradient id="paint3_linear_13_15" x1="-54.7544" y1="362.242" x2="560.781" y2="421.877" gradientUnits="userSpaceOnUse">
<stop stop-color="#0243FD"/>
<stop offset="1" stop-color="#02CBC3"/>
</linearGradient>
<linearGradient id="paint4_linear_13_15" x1="-79.0935" y1="415.814" x2="781.555" y2="534.656" gradientUnits="userSpaceOnUse">
<stop stop-color="#0243FD"/>
<stop offset="1" stop-color="#02CBC3"/>
</linearGradient>
<linearGradient id="paint5_linear_13_15" x1="-79.0935" y1="415.814" x2="781.555" y2="534.656" gradientUnits="userSpaceOnUse">
<stop stop-color="#0243FD"/>
<stop offset="1" stop-color="#02CBC3"/>
</linearGradient>
<linearGradient id="paint6_linear_13_15" x1="-79.0935" y1="415.814" x2="781.555" y2="534.656" gradientUnits="userSpaceOnUse">
<stop stop-color="#0243FD"/>
<stop offset="1" stop-color="#02CBC3"/>
</linearGradient>
<linearGradient id="paint7_linear_13_15" x1="-77.2859" y1="468.875" x2="780.858" y2="585.641" gradientUnits="userSpaceOnUse">
<stop stop-color="#0243FD"/>
<stop offset="1" stop-color="#02CBC3"/>
</linearGradient>
<linearGradient id="paint8_linear_13_15" x1="-77.2859" y1="468.875" x2="780.858" y2="585.641" gradientUnits="userSpaceOnUse">
<stop stop-color="#0243FD"/>
<stop offset="1" stop-color="#02CBC3"/>
</linearGradient>
<linearGradient id="paint9_linear_13_15" x1="-135.482" y1="690.421" x2="737.328" y2="504.3" gradientUnits="userSpaceOnUse">
<stop stop-color="#0243FD"/>
<stop offset="1" stop-color="#02CBC3"/>
</linearGradient>
</defs>
</svg>
