<svg width="527" height="527" viewBox="0 0 527 527" fill="none" xmlns="http://www.w3.org/2000/svg">
<rect width="526.31" height="526.31" rx="39.9729" fill="#0AF886"/>
<path d="M349.763 281.476C349.763 324.709 313.97 359.756 269.817 359.756C225.664 359.756 189.871 324.709 189.871 281.476C189.871 238.243 225.664 203.196 269.817 203.196C313.97 203.196 349.763 238.243 349.763 281.476ZM221.111 281.476C221.111 307.815 242.918 329.167 269.817 329.167C296.717 329.167 318.523 307.815 318.523 281.476C318.523 255.137 296.717 233.785 269.817 233.785C242.918 233.785 221.111 255.137 221.111 281.476Z" fill="white"/>
<path d="M201.359 404.101C201.359 421.578 187.191 435.746 169.713 435.746C152.236 435.746 138.068 421.578 138.068 404.101C138.068 386.624 152.236 372.456 169.713 372.456C187.191 372.456 201.359 386.624 201.359 404.101ZM151.254 404.101C151.254 414.296 159.518 422.561 169.713 422.561C179.908 422.561 188.173 414.296 188.173 404.101C188.173 393.906 179.908 385.641 169.713 385.641C159.518 385.641 151.254 393.906 151.254 404.101Z" fill="white"/>
<path d="M146.567 271.483C146.567 287.12 133.891 299.797 118.253 299.797C102.616 299.797 89.939 287.12 89.939 271.483C89.939 255.845 102.616 243.168 118.253 243.168C133.891 243.168 146.567 255.845 146.567 271.483ZM101.624 271.483C101.624 280.667 109.069 288.112 118.253 288.112C127.437 288.112 134.882 280.667 134.882 271.483C134.882 262.298 127.437 254.853 118.253 254.853C109.069 254.853 101.624 262.298 101.624 271.483Z" fill="white"/>
<path d="M439.702 303.128C439.702 317.845 427.771 329.776 413.053 329.776C398.336 329.776 386.405 317.845 386.405 303.128C386.405 288.41 398.336 276.479 413.053 276.479C427.771 276.479 439.702 288.41 439.702 303.128ZM395.916 303.128C395.916 312.592 403.589 320.265 413.053 320.265C422.518 320.265 430.191 312.592 430.191 303.128C430.191 293.663 422.518 285.991 413.053 285.991C403.589 285.991 395.916 293.663 395.916 303.128Z" fill="white"/>
<path d="M209.858 116.588C209.858 134.985 194.944 149.898 176.547 149.898C158.15 149.898 143.236 134.985 143.236 116.588C143.236 98.1906 158.15 83.2769 176.547 83.2769C194.944 83.2769 209.858 98.1906 209.858 116.588ZM158.619 116.588C158.619 126.489 166.646 134.515 176.547 134.515C186.448 134.515 194.475 126.489 194.475 116.588C194.475 106.686 186.448 98.66 176.547 98.66C166.646 98.66 158.619 106.686 158.619 116.588Z" fill="white"/>
<line x1="190.841" y1="144.026" x2="234.145" y2="217.31" stroke="white" stroke-width="9.99"/>
<line x1="337.745" y1="289.388" x2="393.691" y2="300.4" stroke="white" stroke-width="9.99323"/>
<line x1="186.265" y1="389.512" x2="231.345" y2="338.782" stroke="white" stroke-width="9.99323"/>
<line x1="139.905" y1="271.483" x2="207.771" y2="271.483" stroke="white" stroke-width="9.99323"/>
</svg>
